<svg width="284" height="104" viewBox="0 0 284 104" fill="none" xmlns="http://www.w3.org/2000/svg">
<path d="M71.1519 41.8953C71.1519 57.3796 56.0733 70.5408 36.654 70.5408C17.2347 70.5408 2.15612 57.3796 2.15612 41.8953C2.15612 26.4109 17.2347 13.2497 36.654 13.2497C56.0733 13.2497 71.1519 26.4109 71.1519 41.8953Z" stroke="black" stroke-width="4.31224"/>
<path fill-rule="evenodd" clip-rule="evenodd" d="M141.688 41.8953C141.688 55.8526 127.941 68.3847 109.346 68.3847C108.492 68.3847 107.647 68.3583 106.814 68.3064C106.655 69.769 106.447 71.1972 106.194 72.5847C107.233 72.659 108.284 72.697 109.346 72.697C129.589 72.697 146 58.9066 146 41.8953C146 24.884 129.589 11.0936 109.346 11.0936C89.1025 11.0936 72.692 24.884 72.692 41.8953C72.692 43.5544 72.8481 45.1829 73.1486 46.771C74.362 41.8319 76.1747 37.5388 78.4075 34.2353C82.3541 23.662 94.253 15.4058 109.346 15.4058C127.941 15.4058 141.688 27.9379 141.688 41.8953Z" fill="black"/>
<line x1="73" y1="40.0472" x2="73" y2="87.4818" stroke="black" stroke-width="4.31224"/>
<line x1="160.156" y1="18.0936" x2="160.156" y2="73.0936" stroke="black" stroke-width="4.31224"/>
<line x1="248.156" y1="18.0936" x2="248.156" y2="73.0936" stroke="black" stroke-width="4.31224"/>
<line x1="281.156" y1="18.0936" x2="281.156" y2="73.0936" stroke="black" stroke-width="4.31224"/>
<path d="M218.21 14.3238C210.484 22.7093 204 29.5936 192.5 25.0936C185.851 22.4916 187 14.3238 189.683 9.9319C194.609 4.09358 200.218 4.2859 207.706 5.45197C215.234 6.62436 220.108 11.7604 223.164 18.4174C231.34 36.2259 225.148 46.6779 210.683 56.3428C197.5 65.1506 190.403 65.5125 184.002 65.1506C180.076 64.9286 176.288 61.4952 176.08 58.0304C175.805 53.4269 178.836 53.1786 179.878 52.7155C180.874 52.7988 183.445 52.0587 185.851 55.772C187.383 58.9753 189.592 65.0572 191.43 68.3746C193.269 71.6919 193.296 72.2659 194.609 74.567C196.713 78.2551 199 80.7092 200.959 82.6241C211.628 93.0491 224.519 100.08 240.605 98.7704C253.15 94.5135 261.065 88.4624 265.207 76.3382" stroke="black" stroke-width="4.31" stroke-linecap="round" stroke-linejoin="round"/>
</svg>
